 <!DOCTYPE svg PUBLIC "-//W3C//DTD SVG 1.1//EN" "http://www.w3.org/Graphics/SVG/1.1/DTD/svg11.dtd">
<svg id="f0d6efca-4958-45fc-8dc3-5c9ac480d935" data-name="Layer 1" xmlns="http://www.w3.org/2000/svg" xmlns:xlink="http://www.w3.org/1999/xlink" width="865.76" height="682.89" viewBox="0 0 865.76 682.89">
<defs>
<clipPath id="f65eeaea-770e-454a-bf0c-9522c0114645">
<path id="bb2b1328-00e4-49ae-84b1-58bc955188f3" data-name="SVGID" d="M240.78,450.9H753.39a60.86,60.86,0,0,1,60.86,60.86v71a0,0,0,0,1,0,0H240.78a0,0,0,0,1,0,0V450.9A0,0,0,0,1,240.78,450.9Z" fill="#ccc"/>
</clipPath>
<clipPath id="bac4771d-f392-4529-b25b-a42981b1def6">
<path id="ad87b6dc-69e7-4c27-8d77-4bf702cb231c" data-name="SVGID" d="M495.89,364.06l-21.36,5.12s-24,6.36-22.26,27.46c0,0-.42,9.91,7,11.9a9.09,9.09,0,0,0,6.69-.89c5-2.7,16-9.21,3-7.83a29.76,29.76,0,0,0,8.3-12.06,5.26,5.26,0,0,1,5.56-3.58c11.41,1.27,40.48,4.14,46.26.9,0,0,12.6-6.89,7.17-16.89,0,0-2.26-4.21-11.21-8C525.11,360.23,517.54,356.34,495.89,364.06Z" fill="#f9b499"/>
</clipPath>
<clipPath id="ac5c7ec5-9656-461b-9baf-b303d2c89eb8">
<path id="fe0cc2ee-2bca-4302-8d05-7ad262aec8ea" data-name="SVGID" d="M343,370.5c.37,5.16,3,14.73,17.45,14.52,0,0,39.85-5.91,47.22-1.18,0,0,6.2,13,15.94,11.51a12.2,12.2,0,0,1-4.48,2.11,1.24,1.24,0,0,0-.42,2.2c3.21,2.34,8.86,5.84,12.87,4.84,0,0,6.5-1.9,8.08-10.62a.59.59,0,0,1,1-.3c1.91,2,6.72,6.78,9.51,6.78,0,0,3.17-.45,0-4.12a50.92,50.92,0,0,1-3.22-4.1c-3.82-5.45-15.71-19.06-42.52-25.13l-43.68-8s-6.87-1.52-15.65,6.29A6.36,6.36,0,0,0,343,370.5Z" fill="#f9b499"/>
</clipPath>
<clipPath id="ae09122a-0deb-4d40-9e35-ee673e0429dc">
<path id="b55a492f-3adc-46aa-9fe0-c266ed60f0cd" data-name="SVGID" d="M816.48,351.94s-3.86,77.24-54.71,98.48l-77,.12-.83-111.47S762.41,327.48,816.48,351.94Z" fill="#a3a3a3"/>
</clipPath>
<clipPath id="b60af1f0-6eb3-44f0-8e6c-854fd31b2798">
<path id="a4f38568-1450-44cd-bb2f-035b7dc98095" data-name="SVGID" d="M727,325.68l66.37-7.88a28.44,28.44,0,0,1,19.72,6.57s8.54,6.9,0,16.76c0,0-6.9,13.14-30.89,9.2,0,0-51.26-10.52-55.86-5.26,0,0-2.79,11.43-7.94,17.32a.63.63,0,0,0,.68,1c2.68-.84,6.11-1.54,5.29.73,0,0-7,11.32-16.07,11.07a7.85,7.85,0,0,1-6-3.17c-4.13-5.4-11.79-19.79,6.26-36.82C708.6,335.21,717.48,325.35,727,325.68Z" fill="#f9b499"/>
</clipPath>
<clipPath id="a151ca39-a669-4243-bc87-ac50bdfcff2a">
<path id="e85a491a-7cf6-4ef7-9538-c45ed66e31a3" data-name="SVGID" d="M577,382.25l14.26-65.91a.06.06,0,0,1,.1,0l35.79,29.45,69,5.06a.18.18,0,0,1,.15.21L683,416.21l-69.19-5.4Z" fill="#b2b2b2"/>
</clipPath>
<clipPath id="f49fd256-183a-4059-b7e3-57536ec6ce32">
<path id="a2b2fb8d-6836-42c3-8e8a-2911a7ef1e9a" data-name="SVGID" d="M561.05,331.25c-5.8-2.22-21.95-10.35-16.6-30.71a6.6,6.6,0,0,1,3.65-4.35,20.91,20.91,0,0,1,18,.25,24.35,24.35,0,0,1,9.9,9L587.17,323a7.08,7.08,0,0,0,3.85,2.95c4.52,1.41,14.1,5.86,15.72,18.47,0,0,2,22-2.3,22,0,0-3.29,1-2.63-10.52,0,0-.66-9.86-3.61-13.14,0,0,1.41,19.57-11.3,22.35a4.79,4.79,0,0,1-5.23-2.39,24.51,24.51,0,0,1-2.53-9.12s.33-7.23-9.2-8.87c0,0-5.79-.58-6.78-10.7A3.31,3.31,0,0,0,561.05,331.25Z" fill="#f9b499"/>
</clipPath>
<clipPath id="a0bdc83d-459e-4381-a511-f9a9947e3447">
<path id="aee2e273-9573-4519-884a-01be3248a0e6" data-name="SVGID" d="M128.21,350.88s71-21.69,151.81-2c0,0,50,29.58,60.46,101.21l-159,1.32S126.24,398.19,128.21,350.88Z" fill="#a3a3a3"/>
</clipPath>
<clipPath id="a6f798cd-b50f-4c07-859e-26dad5950827">
<polygon id="a39bfa2e-2cdf-4dc5-a5d7-687dd7739986" data-name="SVGID" points="205.57 109.86 200.63 260.2 298.68 260.2 239.26 102.48 205.57 109.86" fill="#e0e0e0"/>
</clipPath>
<clipPath id="a0fe9253-efc3-4bef-8cd7-4449e2034f16">
<rect id="a7b918ca-cd6f-4fee-bfe1-b1eb9d67f6d8" data-name="SVGID" x="266.16" y="137.1" width="38.84" height="123.11" transform="translate(571.16 397.3) rotate(-180)" fill="#ccc"/>
</clipPath>
<clipPath id="bf0afa00-e385-42c0-8515-9f502519b859">
<rect id="a08cd601-60cf-4e44-b4d3-59bc7fea1d83" data-name="SVGID" x="286.71" y="124.58" width="13.72" height="12.09" transform="translate(587.13 261.25) rotate(-180)" fill="#ccc"/>
</clipPath>
<clipPath id="b5c3c4b7-fa3a-431f-85c1-2e58469bb57b">
<rect id="a3cea0b0-049a-4504-8d66-1300693862ed" data-name="SVGID" x="290.16" y="176.3" width="43.46" height="83.9" transform="translate(623.77 436.51) rotate(-180)" fill="#ccc"/>
</clipPath>
<clipPath id="f1f33ec4-978b-4d09-a074-73391ce9aacc">
<rect id="bd9b2188-7757-46e4-ab81-37e3538869dd" data-name="SVGID" x="313.31" y="162.46" width="15.35" height="13.52" transform="translate(641.96 338.44) rotate(-180)" fill="#ccc"/>
</clipPath>
<clipPath id="aa57838c-105b-4bf6-988f-47aa092838b4">
<rect id="a24bb400-9155-45e8-9d72-82bba6f170fb" data-name="SVGID" x="162.39" y="176.3" width="43.46" height="83.9" transform="translate(368.23 436.51) rotate(-180)" fill="#ccc"/>
</clipPath>
<clipPath id="b04e253d-4080-4eff-9799-0526ac442718">
<rect id="a0f3e9ef-340e-4c7f-91e1-e80ad054794f" data-name="SVGID" x="224.95" y="197.85" width="43.46" height="62.35" transform="translate(493.35 458.06) rotate(-180)" fill="#ccc"/>
</clipPath>
<style xmlns="http://www.w3.org/1999/xhtml">*, ::after, ::before { box-sizing: border-box; }
img, svg { vertical-align: middle; }
</style>
<style xmlns="http://www.w3.org/1999/xhtml">*, body, html { -webkit-font-smoothing: antialiased; }
img, svg { max-width: 100%; }
</style>
</defs>
<path d="M332.63,259.12s-106.23.73-162.92-.47c-9.44-.2-19.38-.57-27.45-5.49-9.57-5.83-14.55-16.87-17.92-27.56-7.66-24.3-9.81-50-9.4-75.52.21-12.57,1.31-26,8.85-36,6.94-9.24,18.16-14.09,29-18a353.21,353.21,0,0,1,130.91-20.6c14.12.47,28.69,1.94,41,8.85,15.56,8.74,29.41,19.27,34.11,36.49s5.88,41.82,5.91,59.67c0,19-.22,38.53-6.4,57.26-3.26,9.87-11,17.78-21,20.49A28.86,28.86,0,0,1,332.63,259.12Z" fill="#e0e0e0"/>
<path d="M150.19,96.8c.84,5.11,32.63,4.1,71-2.25S290,78.9,289.13,73.8s-32.63-4.1-71,2.25S149.34,91.69,150.19,96.8Z" fill="#ccc"/>
<polygon points="687.82 544.65 637.7 432.69 606.82 432.69 679.08 544.65 687.82 544.65" fill="#e0e0e0"/>
<polygon points="48.87 434.58 671.54 434.58 732.62 434.58 732.62 270.85 48.87 270.85 48.87 434.58" fill="#ebebeb"/>
<path d="M58.63,422.78s0-.87.06-2.53,0-4.13.06-7.31c0-6.45.08-15.88.14-28,.07-24.26.17-59.3.3-102.58l-.56.57,328.72.22h0l-.8-.79c0,49.26,0,96.75,0,140.43l.76-.75-235.73.36-68.33.21-18.3.09-4.74.05c-1.07,0-1.64,0-1.64,0s.5,0,1.54.05l4.66.05L83,423l68.15.21,236.25.36h.76v-.76c0-43.68,0-91.17,0-140.43v-.79h-.81l-328.72.22h-.57v.57c.13,43.43.23,78.58.31,102.93.06,12.07.11,21.45.14,27.87,0,3.14,0,5.54.06,7.22S58.63,422.78,58.63,422.78Z" fill="#e0e0e0"/>
<path d="M211.1,352.13a10.34,10.34,0,1,0,10.34-10.34A10.34,10.34,0,0,0,211.1,352.13Z" fill="#e0e0e0"/>
<path d="M392.81,422.78s0-.87.06-2.53,0-4.13.06-7.31c0-6.45.08-15.88.15-28,.07-24.26.17-59.3.3-102.58l-.57.57,328.72.22h0l-.79-.79c0,49.26,0,96.75,0,140.43l.75-.75-235.73.36-68.33.21-18.29.09-4.75.05c-1.07,0-1.64,0-1.64,0s.51,0,1.55.05l4.66.05,18.13.09,68.16.21,236.24.36h.76v-.76c0-43.68,0-91.17,0-140.43v-.79h-.82l-328.72.22h-.56v.57c.13,43.43.23,78.58.3,102.93.06,12.07.11,21.45.14,27.87,0,3.14.05,5.54.07,7.22S392.81,422.78,392.81,422.78Z" fill="#e0e0e0"/>
<path d="M545.28,352.13a10.35,10.35,0,1,0,10.35-10.34A10.34,10.34,0,0,0,545.28,352.13Z" fill="#e0e0e0"/>
<polygon points="145.37 434.58 79.52 545.38 71.94 545.38 121.47 434.58 145.37 434.58" fill="#e0e0e0"/>
<polygon points="607.61 213.26 632.44 271.58 616.46 271.58 605.43 240.43 607.61 213.26" fill="#e0e0e0"/>
<polygon points="531.37 160.49 521.78 271.58 602.93 271.58 611.84 160.49 531.37 160.49" fill="#e0e0e0"/>
<polygon points="539.3 169.3 530.9 262.35 591.81 263.15 600.04 168.76 539.3 169.3" fill="#fafafa"/>
<polygon points="552.22 182.18 547.45 246.21 579.94 246.21 585.67 182.18 552.22 182.18" fill="#e0e0e0"/>
<polygon points="491.73 221.16 510.5 271.58 498.42 271.58 490.08 244.65 491.73 221.16" fill="#e0e0e0"/>
<polygon points="434.1 175.53 426.85 271.58 488.19 271.58 494.93 175.53 434.1 175.53" fill="#e0e0e0"/>
<polygon points="440.1 183.15 433.74 263.6 479.79 264.29 486.01 182.68 440.1 183.15" fill="#fafafa"/>
<polygon points="449.87 194.29 446.25 249.65 470.81 249.65 475.15 194.29 449.87 194.29" fill="#e0e0e0"/>
<polygon points="588.98 580.91 616.13 634.71 638.19 634.71 621.13 581.54 588.98 580.91" fill="#ccc"/>
<polygon points="787.6 634.08 761.75 582.39 792.64 582.39 809.03 634.71 787.6 634.08" fill="#ccc"/>
<polygon points="281.87 577.2 263.45 634.71 283.55 634.71 314.26 574.4 281.87 577.2" fill="#ccc"/>
<path id="fa2581ca-2944-4b95-9826-be94259fce36" data-name="SVGID" d="M240.78,450.9H753.39a60.86,60.86,0,0,1,60.86,60.86v71a0,0,0,0,1,0,0H240.78a0,0,0,0,1,0,0V450.9A0,0,0,0,1,240.78,450.9Z" fill="#ccc"/>
<g clip-path="url(#f65eeaea-770e-454a-bf0c-9522c0114645)">
<rect x="277.75" y="523.59" width="535.23" height="2" fill="#b2b2b2"/>
</g>
<path d="M133.33,452.78V347.43a26.9,26.9,0,0,1,26.9-26.89H684.72v130S133.33,449.42,133.33,452.78Z" fill="#ccc"/>
<path d="M417.47,289.57s-21.63,7.5-26.65,11c0,0-10,4.43-28.92,33.64l-18.48,33.31s7-9.4,17.3-8.52l43.68,8L402,397.71s67.58,10.24,96.5-8.94c0,0-8.55-27.66-8.55-34.45l5.9,9.74s21-7.42,29.22-3.83c0,0,7.61,2.76,11.21,8a41.59,41.59,0,0,0-9.15-20.95L505,314.48s-7.38-25.09-38.37-25.09l-10.23-1.45Z" fill="#0071f2" data-primary="true"/>
<g opacity="0.2">
<path d="M391.52,365l-.8-.6c15.59-20.78,4.18-50.57,4.06-50.87l.93-.36C395.83,313.42,407.44,343.72,391.52,365Z"/>
</g>
<path d="M406.93,445.09l10.9,21.07s94.93-30.56,113.81-58.77a10.79,10.79,0,0,0,1.16-9.85c-2.2-5.82-8-14.45-22.79-13.12a14.7,14.7,0,0,0-5,1.36c-5.37,2.54-20.37,10-42.13,24.06Z" fill="#2f2e41" data-secondary="true"/>
<path d="M406.93,445.09l10.9,21.07s94.93-30.56,113.81-58.77a10.79,10.79,0,0,0,1.16-9.85c-2.2-5.82-8-14.45-22.79-13.12a14.7,14.7,0,0,0-5,1.36c-5.37,2.54-20.37,10-42.13,24.06Z" fill="#fff" opacity="0.2"/>
<path d="M381.49,380.77s-17.07-5.81-24.7,10.54c0,0-11.63,23.62,19.25,32.34l114.1,39.61L499.22,436Z" fill="#2f2e41" data-secondary="true"/>
<path d="M498,388.26s-15.35,15.5-76.67,11.14l33,15.8,25.52-15.8S495.73,390.75,498,388.26Z" fill="#2f2e41" data-secondary="true"/>
<path d="M498,388.26s-15.35,15.5-76.67,11.14l33,15.8,25.52-15.8S495.73,390.75,498,388.26Z" opacity="0.2"/>
<path d="M401.73,471.65l15.35-7.54-7.8-15.1-14.09,8.05s3.77,1.76,3.52,8.81C398.71,465.87,398.71,471.15,401.73,471.65Z" fill="#f9b499"/>
<path d="M401.73,471.65l-8.56,5.54s-1.25,3-6.29-2.77a14.06,14.06,0,0,0-3.6-2.71,18.69,18.69,0,0,1-4.49-3.26c-4.21-4.19-11.8-12.56-8.26-15.17,0,0,4-4,16.18,3.17a5.9,5.9,0,0,0,3.15.8l5.33-.19s3.77,1.26,3.52,8.81C398.71,465.87,398.71,471.15,401.73,471.65Z" fill="#0071f2" data-primary="true"/>
<path id="b2352264-feb9-4fab-820a-f4c73b8692aa" data-name="SVGID" d="M495.89,364.06l-21.36,5.12s-24,6.36-22.26,27.46c0,0-.42,9.91,7,11.9a9.09,9.09,0,0,0,6.69-.89c5-2.7,16-9.21,3-7.83a29.76,29.76,0,0,0,8.3-12.06,5.26,5.26,0,0,1,5.56-3.58c11.41,1.27,40.48,4.14,46.26.9,0,0,12.6-6.89,7.17-16.89,0,0-2.26-4.21-11.21-8C525.11,360.23,517.54,356.34,495.89,364.06Z" fill="#f9b499"/>
<g clip-path="url(#bac4771d-f392-4529-b25b-a42981b1def6)">
<line x1="461" y1="405.28" x2="467.36" y2="406.46" fill="none" stroke="#f7a48b" stroke-miterlimit="10"/>
<line x1="470.43" y1="405.15" x2="463.53" y2="403.15" fill="none" stroke="#f7a48b" stroke-miterlimit="10"/>
<line x1="472.07" y1="403.51" x2="466.98" y2="401.52" fill="none" stroke="#f7a48b" stroke-miterlimit="10"/>
</g>
<path d="M424,282.2s.13,5.47-6.54,7.37c0,0,8.44,17.17,26.16,14.72,0,0,15-2.73,12.81-16.35a29,29,0,0,1-2.46-2.18s-6.33,6.35-17.3,3.95A24.84,24.84,0,0,1,424,282.2Z" fill="#f9b499"/>
<path id="a50043fc-6394-4465-b2e3-7b9e759aa4c6" data-name="SVGID" d="M343,370.5c.37,5.16,3,14.73,17.45,14.52,0,0,39.85-5.91,47.22-1.18,0,0,6.2,13,15.94,11.51a12.2,12.2,0,0,1-4.48,2.11,1.24,1.24,0,0,0-.42,2.2c3.21,2.34,8.86,5.84,12.87,4.84,0,0,6.5-1.9,8.08-10.62a.59.59,0,0,1,1-.3c1.91,2,6.72,6.78,9.51,6.78,0,0,3.17-.45,0-4.12a50.92,50.92,0,0,1-3.22-4.1c-3.82-5.45-15.71-19.06-42.52-25.13l-43.68-8s-6.87-1.52-15.65,6.29A6.36,6.36,0,0,0,343,370.5Z" fill="#f9b499"/>
<g clip-path="url(#ac5c7ec5-9656-461b-9baf-b303d2c89eb8)">
<line x1="420.92" y1="400.95" x2="427.42" y2="397.12" fill="none" stroke="#f7a48b" stroke-miterlimit="10"/>
<line x1="424.47" y1="403.31" x2="430.66" y2="399.18" fill="none" stroke="#f7a48b" stroke-miterlimit="10"/>
<line x1="428.01" y1="404.79" x2="433.32" y2="400.36" fill="none" stroke="#f7a48b" stroke-miterlimit="10"/>
</g>
<path d="M544.64,606.78l.73-25.07,24,.72-3.64,29.44a8.39,8.39,0,0,1-8.56-.69,19,19,0,0,0-5.51-3A33.5,33.5,0,0,0,544.64,606.78Z" fill="#f9b499"/>
<path d="M544.64,606.78s-8.08,11.19-15.91,14a14.91,14.91,0,0,0-5.5,3.36,15.55,15.55,0,0,0-4.62,8.73,2,2,0,0,0,1.6,2.23c4.95,1,19.37,3.27,28.12-.76a12.14,12.14,0,0,0,1.12-.61c1.71-1,8-4.28,14.81-3.35l1.45-18.53a7.57,7.57,0,0,1-8.6-.7,17.84,17.84,0,0,0-5.93-3.15A33.75,33.75,0,0,0,544.64,606.78Z" fill="#0071f2" data-primary="true"/>
<path d="M469.43,578.07l-2.55,24.35a37.21,37.21,0,0,1,10.34,4.33,19.53,19.53,0,0,0,5.5,2.45,13.57,13.57,0,0,0,4.51.49c.36-2.91,5.45-26.89,5.45-26.89Z" fill="#f9b499"/>
<path d="M466.88,602.42s-6.54,8.36-14.53,10.9c0,0-8.84,2.94-12.72,10.69a2.86,2.86,0,0,0,1.49,3.92c5.34,2.18,18.08,6.12,29.76.29,0,0,7.61-2.42,12.7-1.87A.39.39,0,0,0,484,626l3.2-16.33s-4,1-10-2.94A71.87,71.87,0,0,0,466.88,602.42Z" fill="#0071f2" data-primary="true"/>
<path id="a7fd3231-65e1-49da-baa9-cd5aa2360bf3" data-name="SVGID" d="M816.48,351.94s-3.86,77.24-54.71,98.48l-77,.12-.83-111.47S762.41,327.48,816.48,351.94Z" fill="#a3a3a3"/>
<g clip-path="url(#ae09122a-0deb-4d40-9e35-ee673e0429dc)">
<path d="M782.92,365.45c-1.57,5.53-6.25,16-19.87,33.48,0,0-28.32,27.67-1.28,51.49l-77,.12-.83-111.47s64.84,2.95,95.8,19A6.38,6.38,0,0,1,782.92,365.45Z" fill="#fff" opacity="0.2"/>
</g>
<polygon points="567.31 276.72 547.59 297.75 577.82 310.57 591.95 296.76 567.31 276.72" fill="#f9b499"/>
<path d="M660,214.75l-21.25,1.37a3.87,3.87,0,0,0-3.21,2.13c-4.92,9.85-26.11,54.54-25.15,92.76,0,0,2.87,27.7-1.53,50a6.64,6.64,0,0,0,3,7l88.23,53.84s27.62,12,28.34-35.61c0,0-.82-19.25-1.86-35.88a167.29,167.29,0,0,1,3.56-46.81,110,110,0,0,1,4.48-15.41l16-55.59S736.5,211.5,660,214.75Z" fill="#0071f2" data-primary="true"/>
<path d="M610.64,300.83s-31.91,5.45-43-22.25a3,3,0,0,1,.51-3c7.94-9.11,54.66-61.82,70.58-59.42,0,0-2.73.32-4.12,4.49C634.64,220.61,613.88,264.25,610.64,300.83Z" fill="#0071f2" data-primary="true"/>
<path d="M608.72,300.71s-31.6,5.78-42.66-21.91a3,3,0,0,1,.52-3c7.94-9.11,54.65-61.83,70.57-59.42,0,0-2.73.32-4.12,4.48C633,220.82,612,264.12,608.72,300.71Z" opacity="0.2"/>
<path d="M727,325.68l66.37-7.88a27.79,27.79,0,0,1,19.72,6.57s-34.52-76.56-62.44-91.84l-16,55.59S726,311.22,727,325.68Z" fill="#0071f2" data-primary="true"/>
<path d="M727,325.68l66.37-7.88a27.79,27.79,0,0,1,19.72,6.57s-34.52-76.56-62.44-91.84l-16,55.59S726,311.22,727,325.68Z" opacity="0.2"/>
<path id="e57aa4c4-c463-442c-8f2a-259de96b3f49" data-name="SVGID" d="M727,325.68l66.37-7.88a28.44,28.44,0,0,1,19.72,6.57s8.54,6.9,0,16.76c0,0-6.9,13.14-30.89,9.2,0,0-51.26-10.52-55.86-5.26,0,0-2.79,11.43-7.94,17.32a.63.63,0,0,0,.68,1c2.68-.84,6.11-1.54,5.29.73,0,0-7,11.32-16.07,11.07a7.85,7.85,0,0,1-6-3.17c-4.13-5.4-11.79-19.79,6.26-36.82C708.6,335.21,717.48,325.35,727,325.68Z" fill="#f9b499"/>
<g clip-path="url(#b60af1f0-6eb3-44f0-8e6c-854fd31b2798)">
<path d="M721.09,368.07s-7.23,2.3-8.87-.66" fill="none" stroke="#f7a48b" stroke-miterlimit="10"/>
<path d="M715.83,372.67s-1.64,2.3-7.55-1.64" fill="none" stroke="#f7a48b" stroke-miterlimit="10"/>
</g>
<polygon points="91.46 634.15 109.33 578.87 140.04 578.87 112.68 634.71 91.46 634.15" fill="#ccc"/>
<path d="M461.13,576.32s4-67.09,13-103.77c0,0,7.15-64.86,72.46-78.73L590,382.19l25.5,23.26s-79.63,34.89-90.36,77.83l-28.18,100.2Z" fill="#2f2e41" data-secondary="true"/>
<path d="M461.13,576.32s4-67.09,13-103.77c0,0,7.15-64.86,72.46-78.73L590,382.19l25.5,23.26s-79.63,34.89-90.36,77.83l-28.18,100.2Z" fill="#2f2e41" data-secondary="true"/>
<path d="M461.13,576.32s4-67.09,13-103.77c0,0,7.15-64.86,72.46-78.73L590,382.19l25.5,23.26s-79.63,34.89-90.36,77.83l-28.18,100.2Z" opacity="0.2"/>
<path d="M575.2,582.59H539s-9.85-110.94,13-144c0,0,21.92-30,74.7-34l38.47-4,35,21.3a24,24,0,0,0,11.36,1s-7,36.43-77.12,39.34l-32,5.08s-5.09-.36-8.72,10.9C593.69,478.15,585.05,500.26,575.2,582.59Z" fill="#2f2e41" data-secondary="true"/>
<g opacity="0.2">
<rect x="487.86" y="307.96" width="1" height="42.55" transform="translate(-15.41 24.09) rotate(-2.78)"/>
</g>
<g opacity="0.2">
<path d="M488.76,335.57l-.5-.86c4.75-2.8,7.11-19.25,7.13-19.41l1,.13C496.29,316.13,493.93,332.53,488.76,335.57Z"/>
</g>
<path d="M591.54,316.2,603.3,315l26,23.81,62.84,5.07,1,6.67-66-4.76-35.63-29.33A.12.12,0,0,1,591.54,316.2Z" fill="#fff"/>
<path d="M660,214.75s-15.39,40.83,13.19,48.68c0,0,29.53,9.11,37.38-30.78a121.71,121.71,0,0,0-.25-17.56,14.4,14.4,0,0,1-2-6.72,28.31,28.31,0,0,1-23,3.2,24.6,24.6,0,0,1-13.55-11.74S674.87,211.72,660,214.75Z" fill="#f9b499"/>
<ellipse cx="731.08" cy="185.74" rx="8.92" ry="6.46" transform="translate(292.02 799.09) rotate(-68.66)" fill="#f9b499"/>
<path id="a54a084f-5ef2-4d90-b4df-34e2e13e6284" data-name="SVGID" d="M577,382.25l14.26-65.91a.06.06,0,0,1,.1,0l35.79,29.45,69,5.06a.18.18,0,0,1,.15.21L683,416.21l-69.19-5.4Z" fill="#b2b2b2"/>
<g clip-path="url(#a151ca39-a669-4243-bc87-ac50bdfcff2a)">
<rect x="584.88" y="376.85" width="70.16" height="1.91" transform="translate(119.02 903.3) rotate(-77.73)" fill="#ccc"/>
</g>
<path id="e85fd9a2-f2b3-4431-8b85-e2f4039a6958" data-name="SVGID" d="M561.05,331.25c-5.8-2.22-21.95-10.35-16.6-30.71a6.6,6.6,0,0,1,3.65-4.35,20.91,20.91,0,0,1,18,.25,24.35,24.35,0,0,1,9.9,9L587.17,323a7.08,7.08,0,0,0,3.85,2.95c4.52,1.41,14.1,5.86,15.72,18.47,0,0,2,22-2.3,22,0,0-3.29,1-2.63-10.52,0,0-.66-9.86-3.61-13.14,0,0,1.41,19.57-11.3,22.35a4.79,4.79,0,0,1-5.23-2.39,24.51,24.51,0,0,1-2.53-9.12s.33-7.23-9.2-8.87c0,0-5.79-.58-6.78-10.7A3.31,3.31,0,0,0,561.05,331.25Z" fill="#f9b499"/>
<g clip-path="url(#f49fd256-183a-4059-b7e3-57536ec6ce32)">
<path d="M586.9,365.12s8.67-10.19,7.35-23.67" fill="none" stroke="#f7a48b" stroke-miterlimit="10"/>
<path d="M581.67,362.73s7.33-9.77,5.35-21" fill="none" stroke="#f7a48b" stroke-miterlimit="10"/>
<path d="M579.14,353.61c1-1,4.6-4.6,3.28-13.14" fill="none" stroke="#f7a48b" stroke-miterlimit="10"/>
</g>
<path d="M80.66,583.9V351.56a31.74,31.74,0,0,1,31.74-31.74h47.83V450.9h80.55a38,38,0,0,1,37.94,38.25l-.78,94.74Z" fill="#b2b2b2"/>
<path id="f3ff56b9-ec8d-4154-9f1c-d3d8cf324305" data-name="SVGID" d="M128.21,350.88s71-21.69,151.81-2c0,0,50,29.58,60.46,101.21l-159,1.32S126.24,398.19,128.21,350.88Z" fill="#a3a3a3"/>
<g clip-path="url(#a0bdc83d-459e-4381-a511-f9a9947e3447)">
<path d="M259.65,360.73s13.8,5.92,24.31,36.15c0,0,12.49,42.06,56.52,53.23l-159,1.32s-57.18-57.18-53.23-100.55c0,0,4.6,16.43,46,11.82C174.21,362.7,241.9,352.19,259.65,360.73Z" fill="#fff" opacity="0.2"/>
</g>
<path d="M176,154.67c-.32-2.44,3-4.44,5.41-4.64a13.59,13.59,0,0,0,3.5-.32c2.41-.88,3.37-4.14,5.72-5.18,1.75-.78,3.77-.09,5.48.81s3.38,2,5.28,2.16c1.66.11,3.45-.53,4.9.31,1.08.63,1.64,1.94,2.64,2.71a6.09,6.09,0,0,0,3.45,1,9.28,9.28,0,0,1,3.55.61,3,3,0,0,1,1.78,3Z" fill="#fff"/>
<path d="M131.73,132.31c-.39-3,3.61-5.42,6.62-5.68,1.43-.12,2.92.11,4.28-.39,3-1.07,4.12-5.06,7-6.33,2.15-1,4.63-.11,6.71,1s4.14,2.48,6.47,2.64c2,.14,4.22-.65,6,.39,1.32.77,2,2.36,3.22,3.3a7.4,7.4,0,0,0,4.22,1.2,11.39,11.39,0,0,1,4.35.75,3.62,3.62,0,0,1,2.18,3.66Z" fill="#fff"/>
<polygon id="fb161055-e6d4-463b-8a9e-77876b11b434" data-name="SVGID" points="205.57 109.86 200.63 260.2 298.68 260.2 239.26 102.48 205.57 109.86" fill="#e0e0e0"/>
<g clip-path="url(#a6f798cd-b50f-4c07-859e-26dad5950827)">
<polygon points="205.57 109.86 200.63 260.2 298.68 260.2 239.26 102.48 205.57 109.86" fill="#fff" opacity="0.6"/>
</g>
<path d="M210.08,143.88c-.06,0,.16-6.68.51-14.92s.68-14.92.75-14.92-.16,6.69-.51,14.93S210.15,143.89,210.08,143.88Z" fill="#ccc"/>
<path d="M223.54,137.39c-.06,0-.87-5-1.8-11.14s-1.63-11.17-1.56-11.19.87,5,1.8,11.15S223.61,137.38,223.54,137.39Z" fill="#ccc"/>
<path d="M236.29,127.65c-.06,0-1.39-3.65-3-8.2s-2.81-8.27-2.75-8.29,1.39,3.64,3,8.19S236.35,127.62,236.29,127.65Z" fill="#ccc"/>
<path d="M197.58,108.07l-.16,5s28.94,1,51.36-10.3l-2-4.92Z" fill="#ccc"/>
<path d="M202.88,110.47a.81.81,0,0,1-.81.82.82.82,0,1,1,0-1.63A.81.81,0,0,1,202.88,110.47Z" fill="#fff"/>
<circle cx="213.93" cy="109.71" r="0.82" fill="#fff"/>
<path d="M208.48,110.21a.81.81,0,1,1-1.62.08.81.81,0,0,1,1.62-.08Z" fill="#fff"/>
<circle cx="220.26" cy="108.89" r="0.82" fill="#fff"/>
<circle cx="234.78" cy="105.77" r="0.82" fill="#fff"/>
<circle cx="241.59" cy="103.69" r="0.82" fill="#fff"/>
<path d="M228.19,107.65a.81.81,0,0,1-.81.81.82.82,0,0,1-.82-.81.82.82,0,0,1,.82-.82A.82.82,0,0,1,228.19,107.65Z" fill="#fff"/>
<path d="M150.92,97.68c-.23,1.75,23.7,17.24,75,7.48,38.44-7.32,58.09-25.67,62.48-30.23a.48.48,0,0,0-.43-.8Z" fill="#a7a9ac"/>
<path d="M187.39,86.66s-5.73-31.36,25.13-39,37.54,25.2,37.54,25.2S231.59,90.66,187.39,86.66Z" fill="#fff"/>
<path d="M187.39,86.66l.31,0,.94.08,3.69.28,2.7.19c1,0,2.06,0,3.21.06l3.71,0c1.31,0,2.7-.1,4.17-.14l2.25-.11c.77,0,1.56-.08,2.36-.18l5-.53,5.35-.88c1.84-.37,3.71-.83,5.65-1.27a82,82,0,0,0,11.84-4.12A47.46,47.46,0,0,0,250.23,73l.11-.09,0-.14a43.46,43.46,0,0,0-3-8.58,38.37,38.37,0,0,0-5-8A26.4,26.4,0,0,0,228.16,47a28.83,28.83,0,0,0-8.07-.77,40.07,40.07,0,0,0-7.68,1.15,37.13,37.13,0,0,0-13,5.92,29,29,0,0,0-8.22,9.34,30.47,30.47,0,0,0-2.22,5,34.83,34.83,0,0,0-1.28,4.69,41.58,41.58,0,0,0-.8,7.72,39.43,39.43,0,0,0,.24,4.91c.06.56.13,1,.18,1.26s.09.44.09.43a2,2,0,0,0,0-.43c0-.31-.07-.73-.12-1.27a43.19,43.19,0,0,1-.15-4.89A41.92,41.92,0,0,1,188,72.4a32.73,32.73,0,0,1,1.31-4.64,29.1,29.1,0,0,1,2.23-4.91,28.52,28.52,0,0,1,8.15-9.17,36.81,36.81,0,0,1,12.87-5.81,39.92,39.92,0,0,1,7.58-1.11,28.56,28.56,0,0,1,7.93.77,25.94,25.94,0,0,1,13.83,9,37.48,37.48,0,0,1,4.94,7.89,43,43,0,0,1,3,8.46l.07-.23a47,47,0,0,1-11.51,7,83.16,83.16,0,0,1-11.75,4.14c-1.93.44-3.79.91-5.62,1.28l-5.32.9-5,.56c-.8.11-1.58.17-2.35.2l-2.25.12c-1.46.06-2.84.2-4.16.18h-3.7c-1.15,0-2.22,0-3.2,0l-2.66-.14-3.68-.19-1,0Z" fill="#a7a9ac"/>
<path d="M200.27,56.67c.12.14-.87,1.11-2.28,2.8-.35.43-.73.89-1.11,1.42s-.78,1.08-1.19,1.67a37,37,0,0,0-2.33,4.09A39,39,0,0,0,191.61,71c-.2.7-.42,1.35-.56,2s-.3,1.21-.42,1.75c-.44,2.16-.58,3.54-.77,3.53s-.3-1.4-.06-3.66c.07-.56.14-1.18.28-1.83s.3-1.35.48-2.08a27.12,27.12,0,0,1,4.23-8.77c.45-.6.87-1.18,1.32-1.67s.86-1,1.26-1.36C199,57.31,200.18,56.56,200.27,56.67Z" fill="#fff"/>
<path d="M283.8,73.91a1,1,0,0,1-.16.26,6.28,6.28,0,0,1-.58.66,11.78,11.78,0,0,1-2.67,1.81,74.51,74.51,0,0,1-9.71,4.28,71.92,71.92,0,0,1-10.23,2.83c-1.33.27-2.42.45-3.17.55l-.87.12a1.36,1.36,0,0,1-.3,0l.3-.07.86-.16c.74-.13,1.82-.33,3.15-.62a81.19,81.19,0,0,0,10.18-2.9,81.45,81.45,0,0,0,9.71-4.2A12.18,12.18,0,0,0,283,74.76,11,11,0,0,0,283.8,73.91Z" fill="#fff"/>
<path d="M213.83,107.16a1.89,1.89,0,0,1-.46-.21,11.43,11.43,0,0,1-1.18-.72,14.31,14.31,0,0,1-1.59-1.3,17.62,17.62,0,0,1-1.66-1.89,15.28,15.28,0,0,1-1.3-2.16,12.85,12.85,0,0,1-.77-1.9,10.91,10.91,0,0,1-.34-1.34,1.57,1.57,0,0,1-.06-.5s.17.69.56,1.78a16.58,16.58,0,0,0,.8,1.87,20.17,20.17,0,0,0,1.3,2.11,18.21,18.21,0,0,0,1.63,1.87,15.93,15.93,0,0,0,1.53,1.32C213.22,106.78,213.85,107.12,213.83,107.16Z" fill="#ccc"/>
<path d="M210.84,100.2s-.1.1-.12.27a.35.35,0,0,0,.07.26.25.25,0,0,0,.28,0,.27.27,0,0,0,.18-.23.3.3,0,0,0-.13-.23c-.14-.11-.27-.08-.28-.11s.13-.15.37,0a.44.44,0,0,1-.05.82.46.46,0,0,1-.54-.12.48.48,0,0,1-.06-.44C210.65,100.18,210.85,100.17,210.84,100.2Z" fill="#ccc"/>
<path d="M213.31,103.6s-.11.1-.13.27a.35.35,0,0,0,.07.26.28.28,0,0,0,.46-.19.3.3,0,0,0-.13-.23c-.13-.11-.26-.08-.27-.11s.12-.15.36,0a.45.45,0,0,1,.26.36.46.46,0,0,1-.3.46.45.45,0,0,1-.54-.12.46.46,0,0,1-.07-.44C213.11,103.58,213.31,103.57,213.31,103.6Z" fill="#ccc"/>
<path d="M150.31,96.47l.36-.16,1-.43c.91-.37,2.22-.88,3.85-1.48,3.27-1.2,7.85-2.72,13-4.07s9.86-2.3,13.3-2.86c1.72-.28,3.11-.49,4.08-.61l1.11-.14a1.92,1.92,0,0,1,.39,0,1.74,1.74,0,0,1-.38.08l-1.11.18c-1,.15-2.35.38-4.06.69-3.43.6-8.14,1.57-13.27,2.92s-9.71,2.84-13,4c-1.64.58-3,1.06-3.87,1.41l-1.05.38A1.59,1.59,0,0,1,150.31,96.47Z" fill="#a7a9ac"/>
<path d="M252.34,88.15a4.79,4.79,0,0,1-.62-.29L250.05,87c-1.41-.71-3.37-1.67-5.57-2.66s-4.22-1.82-5.69-2.41l-1.74-.68a6,6,0,0,1-.63-.28,3,3,0,0,1,.66.19c.43.13,1,.34,1.77.62,1.49.54,3.52,1.35,5.73,2.34s4.15,2,5.55,2.73c.69.38,1.25.69,1.63.92A2.61,2.61,0,0,1,252.34,88.15Z" fill="#a7a9ac"/>
<path d="M238.91,83.67s-.1.16-.06.39a.49.49,0,0,0,.19.32.42.42,0,0,0,.62-.37.48.48,0,0,0-.19-.32c-.18-.14-.36-.1-.36-.13s.17-.15.45,0a.62.62,0,0,1,.32.44.63.63,0,0,1-1,.57.61.61,0,0,1-.23-.49C238.69,83.75,238.9,83.65,238.91,83.67Z" fill="#a7a9ac"/>
<path d="M179.88,88.79s-.1.16-.06.39a.45.45,0,0,0,.19.32.38.38,0,0,0,.41,0,.4.4,0,0,0,.21-.36.48.48,0,0,0-.19-.32c-.19-.14-.36-.1-.37-.13s.18-.16.46,0a.62.62,0,0,1,.32.44.63.63,0,0,1-1,.57.61.61,0,0,1-.23-.49C179.66,88.87,179.87,88.76,179.88,88.79Z" fill="#a7a9ac"/>
<path d="M169.19,91.43s-.1.15-.06.39a.46.46,0,0,0,.18.32.42.42,0,0,0,.42,0,.41.41,0,0,0,.21-.36.48.48,0,0,0-.19-.32c-.19-.14-.36-.1-.37-.14s.18-.15.46,0a.62.62,0,0,1,.32.43.59.59,0,0,1-.31.59.59.59,0,0,1-.67,0,.61.61,0,0,1-.22-.48C169,91.51,169.18,91.4,169.19,91.43Z" fill="#a7a9ac"/>
<path d="M157,94.79s-.09.15-.05.39a.46.46,0,0,0,.18.32.42.42,0,0,0,.42,0,.41.41,0,0,0,.21-.36.48.48,0,0,0-.19-.32c-.19-.14-.36-.1-.37-.13s.17-.16.46,0a.58.58,0,0,1,.31.43.57.57,0,0,1-.3.59.59.59,0,0,1-.67,0,.61.61,0,0,1-.22-.48C156.82,94.87,157,94.76,157,94.79Z" fill="#a7a9ac"/>
<path d="M244.25,86.44s-.09.15-.05.39a.42.42,0,0,0,.18.31.4.4,0,0,0,.42,0,.41.41,0,0,0,.21-.36.46.46,0,0,0-.19-.32c-.19-.15-.36-.1-.37-.14s.17-.15.46,0a.6.6,0,1,1-.66,1,.62.62,0,0,1-.22-.48C244,86.52,244.25,86.41,244.25,86.44Z" fill="#a7a9ac"/>
<path d="M218.17,56.47a8,8,0,0,0-9.7,7.32c0,.07,0,.14,0,.21a7,7,0,0,0,.25,2.32,11.48,11.48,0,0,0,2,3.86c2.6,3.28,3.78,3.26,4.23,5.26s.81,2.39-.12,3.37a6,6,0,0,0-2.13.81c-.72.56-1.32,1-1.13,3.36s.26,3.84.26,3.84a64,64,0,0,0,12.3-1.92L222.92,79a1.64,1.64,0,0,0-1.33-1c-1-.06-2.42.15-2.57-.35s0-.7,0-.7a4.46,4.46,0,0,0,2.86-.16c1-.65,2.22-1.48,2.33-2.37a23.5,23.5,0,0,0,.29-4,8.69,8.69,0,0,0,1.18-5.14c-.31-3.36-3.07-7.58-6.19-8.48C219.08,56.68,218.62,56.56,218.17,56.47Z" fill="#a7a9ac"/>
<g opacity="0.2">
<path d="M212.12,59.13a1,1,0,0,0-.91.92,1,1,0,0,0,2,.48,1,1,0,0,0-.41-1.26,1,1,0,0,0-.87-.09" fill="#fff"/>
</g>
<path d="M214.74,66.08a.43.43,0,1,0,.27.08.4.4,0,0,0-.35-.06" fill="#fff" opacity="0.2"/>
<path d="M215.1,67.63a.23.23,0,0,0-.21.18.23.23,0,0,0,.15.24.22.22,0,0,0,.26-.1.23.23,0,0,0-.06-.28.23.23,0,0,0-.18,0" fill="#fff" opacity="0.2"/>
<g opacity="0.2">
<path d="M210.87,61.68a.43.43,0,0,0-.13.64.44.44,0,0,0,.65-.06.43.43,0,0,0-.24-.6" fill="#fff"/>
</g>
<path d="M221.22,66a1.61,1.61,0,0,1-.17-.57A3.5,3.5,0,0,1,221,64a1.91,1.91,0,0,1,.81-1.22.79.79,0,0,1,.58-.16s-.23.07-.5.28a2,2,0,0,0-.69,1.14,4.26,4.26,0,0,0,0,1.38A1.79,1.79,0,0,1,221.22,66Z" fill="#ccc"/>
<path d="M220.73,77a1.53,1.53,0,0,1-.68.1,4,4,0,0,1-1.64-.35,4.06,4.06,0,0,1-1.35-1,1.5,1.5,0,0,1-.38-.58s.18.2.48.48a4.78,4.78,0,0,0,1.34.9,4.62,4.62,0,0,0,1.55.39A4.94,4.94,0,0,1,220.73,77Z" fill="#ccc"/>
<path d="M214.46,86.56a9,9,0,0,1-.31-1.81,9,9,0,0,1-.12-1.84,8.05,8.05,0,0,1,.32,1.81A7.89,7.89,0,0,1,214.46,86.56Z" fill="#ccc"/>
<path d="M218.22,84.69a3.55,3.55,0,0,1-1.67.41,1.86,1.86,0,0,1-1.22-.21c-.28-.2-.31-.44-.28-.44s.1.18.35.32a2.06,2.06,0,0,0,1.14.13C217.47,84.85,218.2,84.64,218.22,84.69Z" fill="#ccc"/>
<path d="M222.08,85.36a6.21,6.21,0,0,1-.41-1.5,6.1,6.1,0,0,1-.22-1.54,5.72,5.72,0,0,1,.41,1.5A5.6,5.6,0,0,1,222.08,85.36Z" fill="#ccc"/>
<path d="M221.6,82.92c.06,0-.06.53-.56.9a1.18,1.18,0,0,1-1,.3,5.39,5.39,0,0,0,.9-.46C221.36,83.33,221.55,82.9,221.6,82.92Z" fill="#ccc"/>
<path d="M222.23,55.6a5.08,5.08,0,0,0-1.12.85,6.06,6.06,0,0,0-.73,1.21s0-.17.05-.43a2.59,2.59,0,0,1,1.37-1.53C222.05,55.59,222.22,55.57,222.23,55.6Z" fill="#a7a9ac"/>
<path d="M222.64,55.13a.53.53,0,0,0-.66.28.47.47,0,0,0,.64.59.52.52,0,0,0,.15-.81.29.29,0,0,0-.3-.09" fill="#a7a9ac"/>
<path d="M220.4,55.1a6,6,0,0,0-1.13.86,6,6,0,0,0-.72,1.21s0-.17,0-.43a2.51,2.51,0,0,1,.53-.91,2.41,2.41,0,0,1,.84-.62A.81.81,0,0,1,220.4,55.1Z" fill="#a7a9ac"/>
<path d="M220.81,54.64a.53.53,0,0,0-.66.28.47.47,0,0,0,.64.59.52.52,0,0,0,.14-.81.3.3,0,0,0-.29-.1" fill="#a7a9ac"/>
<path d="M221.11,72.42c0,.07-.33,0-.7-.06s-.65-.22-.63-.29.33,0,.69.06S221.13,72.36,221.11,72.42Z" fill="#ccc"/>
<rect id="a68adf7d-82e9-41e5-ba30-386670ecbeb0" data-name="SVGID" x="266.16" y="137.1" width="38.84" height="123.11" transform="translate(571.16 397.3) rotate(-180)" fill="#ccc"/>
<g clip-path="url(#a0fe9253-efc3-4bef-8cd7-4449e2034f16)">
<rect x="285.58" y="137.1" width="19.42" height="122.77" transform="translate(590.59 396.96) rotate(-180)" opacity="0.2"/>
</g>
<rect id="fa9d5aba-6222-4fed-8f03-73d8ddf0c7a2" data-name="SVGID" x="286.71" y="124.58" width="13.72" height="12.09" transform="translate(587.13 261.25) rotate(-180)" fill="#ccc"/>
<g clip-path="url(#bf0afa00-e385-42c0-8515-9f502519b859)">
<rect x="293.31" y="124.58" width="7.12" height="12.09" transform="translate(593.74 261.25) rotate(-180)" opacity="0.2"/>
</g>
<polyline points="308.24 137.1 308.24 136.39 265.02 136.39 265.02 137.1" fill="#a7a9ac"/>
<rect x="294.05" y="142.37" width="3.29" height="6.93" transform="translate(591.38 291.67) rotate(-180)" fill="#fafafa"/>
<path d="M285.58,152c0,.08,4.35.14,9.71.14S305,152.1,305,152s-4.34-.13-9.71-.13S285.58,152,285.58,152Z" fill="#a7a9ac"/>
<rect x="274.46" y="142.37" width="3.29" height="6.93" transform="translate(552.2 291.67) rotate(-180)" fill="#e0e0e0"/>
<path d="M266.13,152.06c0,.05,4.32.1,9.64.1s9.64,0,9.64-.1-4.31-.1-9.64-.1S266.13,152,266.13,152.06Z" fill="#a7a9ac"/>
<rect x="274.46" y="156.13" width="3.29" height="6.93" transform="translate(552.2 319.2) rotate(-180)" fill="#e0e0e0"/>
<path d="M266,165.79c0,.07,4.35.13,9.71.13s9.71-.06,9.71-.13-4.34-.13-9.71-.13S266,165.72,266,165.79Z" fill="#a7a9ac"/>
<rect x="274.46" y="170.31" width="3.29" height="6.93" transform="translate(552.2 347.56) rotate(-180)" fill="#e0e0e0"/>
<path d="M266,180c0,.07,4.35.13,9.71.13s9.71-.06,9.71-.13-4.34-.13-9.71-.13S266,179.9,266,180Z" fill="#a7a9ac"/>
<rect x="274.46" y="184.49" width="3.29" height="6.93" transform="translate(552.2 375.92) rotate(-180)" fill="#e0e0e0"/>
<path d="M266,194.15c0,.07,4.35.13,9.71.13s9.71-.06,9.71-.13-4.34-.13-9.71-.13S266,194.08,266,194.15Z" fill="#a7a9ac"/>
<rect x="274.46" y="198.27" width="3.29" height="6.93" transform="translate(552.2 403.47) rotate(-180)" fill="#e0e0e0"/>
<path d="M266,207.92c0,.08,4.35.14,9.71.14s9.71-.06,9.71-.14-4.34-.13-9.71-.13S266,207.85,266,207.92Z" fill="#a7a9ac"/>
<rect x="274.46" y="212.1" width="3.29" height="6.93" transform="translate(552.2 431.13) rotate(-180)" fill="#e0e0e0"/>
<rect x="274.46" y="226.11" width="3.29" height="6.93" transform="translate(552.2 459.15) rotate(-180)" fill="#e0e0e0"/>
<path d="M266,221.75c0,.08,4.35.14,9.71.14s9.71-.06,9.71-.14-4.34-.13-9.71-.13S266,221.68,266,221.75Z" fill="#a7a9ac"/>
<rect x="294.05" y="156.34" width="3.29" height="6.93" transform="translate(591.38 319.62) rotate(-180)" fill="#fafafa"/>
<path d="M285.58,166c0,.07,4.35.13,9.71.13s9.71-.06,9.71-.13-4.34-.13-9.71-.13S285.58,165.93,285.58,166Z" fill="#a7a9ac"/>
<rect x="294.05" y="170.32" width="3.29" height="6.93" transform="translate(591.38 347.57) rotate(-180)" fill="#fafafa"/>
<path d="M285.58,180c0,.08,4.35.14,9.71.14s9.71-.06,9.71-.14-4.34-.13-9.71-.13S285.58,179.9,285.58,180Z" fill="#a7a9ac"/>
<rect x="294.05" y="184.29" width="3.29" height="6.93" transform="translate(591.38 375.52) rotate(-180)" fill="#fafafa"/>
<path d="M285.58,194c0,.07,4.35.13,9.71.13S305,194,305,194s-4.34-.13-9.71-.13S285.58,193.88,285.58,194Z" fill="#a7a9ac"/>
<rect x="294.05" y="198.27" width="3.29" height="6.93" transform="translate(591.38 403.47) rotate(-180)" fill="#fafafa"/>
<path d="M285.58,207.92c0,.08,4.35.14,9.71.14s9.71-.06,9.71-.14-4.34-.13-9.71-.13S285.58,207.85,285.58,207.92Z" fill="#a7a9ac"/>
<rect x="294.05" y="212.24" width="3.29" height="6.93" transform="translate(591.38 431.42) rotate(-180)" fill="#fafafa"/>
<path d="M285.58,221.9c0,.07,4.35.13,9.71.13S305,222,305,221.9s-4.34-.13-9.71-.13S285.58,221.83,285.58,221.9Z" fill="#a7a9ac"/>
<rect x="294.05" y="226.22" width="3.29" height="6.93" transform="translate(591.38 459.37) rotate(-180)" fill="#fafafa"/>
<rect id="e74b42a8-5cef-4bdc-8678-744258ab478d" data-name="SVGID" x="290.16" y="176.3" width="43.46" height="83.9" transform="translate(623.77 436.51) rotate(-180)" fill="#ccc"/>
<g clip-path="url(#b5c3c4b7-fa3a-431f-85c1-2e58469bb57b)">
<rect x="311.89" y="176.3" width="21.73" height="83.67" transform="translate(645.5 436.28) rotate(-180)" opacity="0.2"/>
</g>
<rect id="bfe14846-88dc-4e56-a7d7-3eebca586f14" data-name="SVGID" x="313.31" y="162.46" width="15.35" height="13.52" transform="translate(641.96 338.44) rotate(-180)" fill="#ccc"/>
<g clip-path="url(#f1f33ec4-978b-4d09-a074-73391ce9aacc)">
<rect x="320.69" y="162.46" width="7.96" height="13.52" transform="translate(649.35 338.44) rotate(-180)" opacity="0.2"/>
</g>
<polyline points="337.24 176.3 337.24 175.51 288.89 175.51 288.89 176.3" fill="#a7a9ac"/>
<rect x="321.36" y="182.2" width="3.68" height="7.76" transform="translate(646.4 372.15) rotate(-180)" fill="#fafafa"/>
<path d="M311.89,193c0,.08,4.86.15,10.86.15s10.87-.07,10.87-.15-4.87-.15-10.87-.15S311.89,192.92,311.89,193Z" fill="#a7a9ac"/>
<rect x="299.44" y="182.2" width="3.68" height="7.76" transform="translate(602.56 372.15) rotate(-180)" fill="#e0e0e0"/>
<path d="M290,193c0,.08,4.86.15,10.86.15s10.87-.07,10.87-.15-4.87-.15-10.87-.15S290,192.92,290,193Z" fill="#a7a9ac"/>
<rect x="299.44" y="197.6" width="3.68" height="7.76" transform="translate(602.56 402.95) rotate(-180)" fill="#e0e0e0"/>
<path d="M290,208.4c0,.08,4.86.14,10.86.14s10.87-.06,10.87-.14-4.87-.15-10.87-.15S290,208.32,290,208.4Z" fill="#a7a9ac"/>
<rect x="299.44" y="213.46" width="3.68" height="7.76" transform="translate(602.56 434.68) rotate(-180)" fill="#e0e0e0"/>
<path d="M290,224.26c0,.08,4.86.15,10.86.15s10.87-.07,10.87-.15-4.87-.15-10.87-.15S290,224.18,290,224.26Z" fill="#a7a9ac"/>
<rect x="299.44" y="229.32" width="3.68" height="7.76" transform="translate(602.56 466.4) rotate(-180)" fill="#e0e0e0"/>
<path d="M290,240.12c0,.09,4.86.15,10.86.15s10.87-.06,10.87-.15-4.87-.14-10.87-.14S290,240,290,240.12Z" fill="#a7a9ac"/>
<rect x="299.44" y="244.73" width="3.68" height="7.76" transform="translate(602.56 497.22) rotate(-180)" fill="#e0e0e0"/>
<rect x="321.36" y="197.83" width="3.68" height="7.76" transform="translate(646.4 403.42) rotate(-180)" fill="#fafafa"/>
<path d="M311.89,208.63c0,.08,4.86.15,10.86.15s10.87-.07,10.87-.15-4.87-.15-10.87-.15S311.89,208.55,311.89,208.63Z" fill="#a7a9ac"/>
<rect x="321.36" y="213.47" width="3.68" height="7.76" transform="translate(646.4 434.69) rotate(-180)" fill="#fafafa"/>
<path d="M311.89,224.27c0,.08,4.86.14,10.86.14s10.87-.06,10.87-.14-4.87-.15-10.87-.15S311.89,224.18,311.89,224.27Z" fill="#a7a9ac"/>
<rect x="321.36" y="229.1" width="3.68" height="7.76" transform="translate(646.4 465.96) rotate(-180)" fill="#fafafa"/>
<path d="M311.89,239.9c0,.08,4.86.15,10.86.15s10.87-.07,10.87-.15-4.87-.15-10.87-.15S311.89,239.82,311.89,239.9Z" fill="#a7a9ac"/>
<rect x="321.36" y="244.73" width="3.68" height="7.76" transform="translate(646.4 497.22) rotate(-180)" fill="#fafafa"/>
<rect id="e161455c-0ee6-4465-b70d-7024b5574a62" data-name="SVGID" x="162.39" y="176.3" width="43.46" height="83.9" transform="translate(368.23 436.51) rotate(-180)" fill="#ccc"/>
<g clip-path="url(#aa57838c-105b-4bf6-988f-47aa092838b4)">
<rect x="184.11" y="176.3" width="21.73" height="83.67" transform="translate(389.96 436.28) rotate(-180)" opacity="0.2"/>
</g>
<rect x="185.53" y="162.78" width="15.35" height="13.52" transform="translate(386.41 339.08) rotate(-180)" fill="#ccc"/>
<rect x="192.92" y="162.78" width="7.96" height="13.52" transform="translate(393.8 339.08) rotate(-180)" opacity="0.3"/>
<polyline points="209.58 176.54 209.58 175.75 161.23 175.75 161.23 176.54" fill="#a7a9ac"/>
<rect x="193.59" y="182.2" width="3.68" height="7.76" transform="translate(390.85 372.15) rotate(-180)" fill="#fafafa"/>
<path d="M184.11,193c0,.08,4.87.15,10.87.15s10.86-.07,10.86-.15-4.86-.15-10.86-.15S184.11,192.92,184.11,193Z" fill="#a7a9ac"/>
<rect x="171.67" y="182.2" width="3.68" height="7.76" transform="translate(347.02 372.15) rotate(-180)" fill="#e0e0e0"/>
<path d="M162.2,193c0,.08,4.86.15,10.86.15s10.87-.07,10.87-.15-4.87-.15-10.87-.15S162.2,192.92,162.2,193Z" fill="#a7a9ac"/>
<rect x="171.67" y="197.6" width="3.68" height="7.76" transform="translate(347.02 402.95) rotate(-180)" fill="#e0e0e0"/>
<path d="M162.2,208.4c0,.08,4.86.14,10.86.14s10.87-.06,10.87-.14-4.87-.15-10.87-.15S162.2,208.32,162.2,208.4Z" fill="#a7a9ac"/>
<rect x="171.67" y="213.46" width="3.68" height="7.76" transform="translate(347.02 434.68) rotate(-180)" fill="#e0e0e0"/>
<path d="M162.2,224.26c0,.08,4.86.15,10.86.15s10.87-.07,10.87-.15-4.87-.15-10.87-.15S162.2,224.18,162.2,224.26Z" fill="#a7a9ac"/>
<rect x="171.67" y="229.32" width="3.68" height="7.76" transform="translate(347.02 466.4) rotate(-180)" fill="#e0e0e0"/>
<path d="M162.2,240.12c0,.09,4.86.15,10.86.15s10.87-.06,10.87-.15-4.87-.14-10.87-.14S162.2,240,162.2,240.12Z" fill="#a7a9ac"/>
<rect x="171.67" y="244.73" width="3.68" height="7.76" transform="translate(347.02 497.22) rotate(-180)" fill="#e0e0e0"/>
<rect x="193.59" y="197.83" width="3.68" height="7.76" transform="translate(390.85 403.42) rotate(-180)" fill="#fafafa"/>
<path d="M184.11,208.63c0,.08,4.87.15,10.87.15s10.86-.07,10.86-.15-4.86-.15-10.86-.15S184.11,208.55,184.11,208.63Z" fill="#a7a9ac"/>
<rect x="193.59" y="213.47" width="3.68" height="7.76" transform="translate(390.85 434.69) rotate(-180)" fill="#fafafa"/>
<path d="M184.11,224.27c0,.08,4.87.14,10.87.14s10.86-.06,10.86-.14-4.86-.15-10.86-.15S184.11,224.18,184.11,224.27Z" fill="#a7a9ac"/>
<rect x="193.59" y="229.1" width="3.68" height="7.76" transform="translate(390.85 465.96) rotate(-180)" fill="#fafafa"/>
<path d="M184.11,239.9c0,.08,4.87.15,10.87.15s10.86-.07,10.86-.15-4.86-.15-10.86-.15S184.11,239.82,184.11,239.9Z" fill="#a7a9ac"/>
<rect x="193.59" y="244.73" width="3.68" height="7.76" transform="translate(390.85 497.22) rotate(-180)" fill="#fafafa"/>
<rect id="b7fe1b84-e1cc-4d8c-8892-e4b04d3c72fd" data-name="SVGID" x="224.95" y="197.85" width="43.46" height="62.35" transform="translate(493.35 458.06) rotate(-180)" fill="#ccc"/>
<g clip-path="url(#b04e253d-4080-4eff-9799-0526ac442718)">
<rect x="246.68" y="197.85" width="21.73" height="62.18" transform="translate(515.08 457.89) rotate(-180)" opacity="0.2"/>
</g>
<rect x="248.1" y="184.33" width="15.35" height="13.52" transform="translate(511.54 382.18) rotate(-180)" fill="#ccc"/>
<rect x="255.48" y="184.33" width="7.96" height="13.52" transform="translate(518.92 382.18) rotate(-180)" opacity="0.3"/>
<rect x="256.15" y="203.75" width="3.68" height="7.76" transform="translate(515.97 415.25) rotate(-180)" fill="#fafafa"/>
<path d="M246.68,214.55c0,.08,4.86.15,10.86.15s10.86-.07,10.86-.15-4.86-.15-10.86-.15S246.68,214.47,246.68,214.55Z" fill="#a7a9ac"/>
<rect x="234.23" y="203.75" width="3.68" height="7.76" transform="translate(472.14 415.25) rotate(-180)" fill="#e0e0e0"/>
<path d="M224.76,214.55c0,.08,4.86.15,10.86.15s10.87-.07,10.87-.15-4.87-.15-10.87-.15S224.76,214.47,224.76,214.55Z" fill="#a7a9ac"/>
<rect x="234.23" y="219.15" width="3.68" height="7.76" transform="translate(472.14 446.05) rotate(-180)" fill="#e0e0e0"/>
<path d="M224.76,230c0,.08,4.86.15,10.86.15s10.87-.07,10.87-.15-4.87-.15-10.87-.15S224.76,229.87,224.76,230Z" fill="#a7a9ac"/>
<rect x="234.23" y="235.01" width="3.68" height="7.76" transform="translate(472.14 477.78) rotate(-180)" fill="#e0e0e0"/>
<path d="M224.76,245.81c0,.08,4.86.15,10.86.15s10.87-.07,10.87-.15-4.87-.15-10.87-.15S224.76,245.73,224.76,245.81Z" fill="#a7a9ac"/>
<rect x="234.23" y="250.87" width="3.68" height="7.76" transform="translate(472.14 509.51) rotate(-180)" fill="#e0e0e0"/>
<rect x="256.15" y="219.38" width="3.68" height="7.76" transform="translate(515.97 446.52) rotate(-180)" fill="#fafafa"/>
<path d="M246.68,230.18c0,.08,4.86.15,10.86.15s10.86-.07,10.86-.15-4.86-.15-10.86-.15S246.68,230.1,246.68,230.18Z" fill="#a7a9ac"/>
<rect x="256.15" y="235.02" width="3.68" height="7.76" transform="translate(515.97 477.79) rotate(-180)" fill="#fafafa"/>
<path d="M246.68,245.82c0,.08,4.86.15,10.86.15s10.86-.07,10.86-.15-4.86-.15-10.86-.15S246.68,245.74,246.68,245.82Z" fill="#a7a9ac"/>
<rect x="256.15" y="250.65" width="3.68" height="7.76" transform="translate(515.97 509.06) rotate(-180)" fill="#fafafa"/>
<path d="M361.64,201.47c1.65.45,23.18,16.78,23.18,16.78L356.34,223Z" fill="#e0e0e0"/>
<path d="M268.68,115c-.49-3.8,4.62-6.93,8.46-7.25,1.83-.15,3.74.14,5.47-.5,3.76-1.37,5.26-6.47,8.93-8.09,2.75-1.21,5.9-.13,8.56,1.27s5.29,3.17,8.26,3.37c2.59.18,5.39-.83,7.66.49,1.68,1,2.56,3,4.12,4.23a9.54,9.54,0,0,0,5.38,1.53,14.69,14.69,0,0,1,5.56,1c1.71.83,3.13,2.73,2.78,4.67Z" fill="#fff"/>
<path d="M213.57,65.07s6.16-2.69,6.07,4.81C219.64,69.88,212.92,71.53,213.57,65.07Z" opacity="0.2"/>
<path d="M222.37,69.05s-3.44-6.11,1.36-6C223.73,63,226.83,67.38,222.37,69.05Z" opacity="0.2"/>
<g opacity="0.2">
<path d="M217.82,70.45s-.11,0-.3.06a3.59,3.59,0,0,1-.84,0,4.43,4.43,0,0,1-3.78-3.54,3.49,3.49,0,0,1-.08-.83.83.83,0,0,1,0-.3s0,.43.19,1.1a4.68,4.68,0,0,0,1.32,2.26,4.75,4.75,0,0,0,2.35,1.17A9.64,9.64,0,0,0,217.82,70.45Z"/>
</g>
<g opacity="0.2">
<path d="M219.18,65.48a6.63,6.63,0,0,0-1.9-1.35,6.76,6.76,0,0,0-2.29-.42,1.51,1.51,0,0,1,.69-.1,4.11,4.11,0,0,1,1.68.34,4.22,4.22,0,0,1,1.41,1A1.65,1.65,0,0,1,219.18,65.48Z"/>
</g>
<g opacity="0.2">
<path d="M224.55,68.08a1.48,1.48,0,0,1-.76,1,1.53,1.53,0,0,1-1.23.28,5.92,5.92,0,0,0,1.12-.45A5.82,5.82,0,0,0,224.55,68.08Z"/>
</g>
<polygon points="272.47 198.35 271.72 198.35 271.72 197.94 224.12 197.94 224.12 198.35 223.37 198.35 223.37 197.19 272.47 197.19 272.47 198.35" fill="#a7a9ac"/>
<path d="M671.73,199.49s1.67,6.49-2.85,10.77c0,0,15.85,13.16,29.8,1.83C698.68,212.09,679.5,214,671.73,199.49Z" fill="#f7a48b"/>
<ellipse cx="698.44" cy="173.66" rx="40.1" ry="30.73" transform="translate(306.44 777.25) rotate(-70.96)" fill="#f9b499"/>
<path d="M675.44,151.5S679.8,145,690,145.32c0,0,13.81-.36,20-4a42.38,42.38,0,0,0,7.83,15.08,31.48,31.48,0,0,1,6.26,11.64c1.36,4.61,2.31,10.31,1,15.33,0,0,2.48-6.91,8.33-6.14a4,4,0,0,1,2,.78c1.4,1.06,3.56,3.81,1.75,10.07,0,0-2.34,6.54-8.08,6.13a4.24,4.24,0,0,1-2.42-1,6.58,6.58,0,0,1-2-2.85s-6.12,12-16.29,18a13,13,0,0,0,2,6.72,121.27,121.27,0,0,1-1.09,29.07S694.7,279,716.87,292.84c0,0,38.87,28,37.42-2.18,0,0-5.45-75.94-4.72-97.37,0,0,4.72-58.87-10.9-70.13,0,0-15-17.07-40.43-7.78a50.56,50.56,0,0,0-26.41,22.47c-6.38,11.14-13.1,29.4-13.1,56.89,0,0-1.81,18.58-5.44,20.4,0,0,21.29,1.66,18.52-15.31,0,0-8.36-11.09-4-31.25A50.55,50.55,0,0,1,675.44,151.5Z" fill="#2f2e41" data-secondary="true"/>
<path d="M421.8,287.15A7.56,7.56,0,0,0,424,282s10.59,8.91,22,7.48A23,23,0,0,1,421.8,287.15Z" fill="#f7a48b"/>
<ellipse cx="439.32" cy="253.14" rx="27.57" ry="37.31" transform="translate(-28.38 57.35) rotate(-7.24)" fill="#f9b499"/>
<path d="M417.64,229.32s2.55,7.33-.32,22.3c0,0-1.05,12.17-.59,18.8a9.83,9.83,0,0,0,2.11,5.43c1.74,2.2,4.74,5.36,5.17,6.35.76,1.73-4.17,11.79-15,5.74,0,0-13.08-1.64-11.72-23.16l3.27-34.61s-.27-26.44,22.62-23.17c0,0,16.35-16.89,37.61,1.37,0,0,10.62,8.72,10.9,27.79,0,0,.54,18.26,4.63,23.44,0,0,13.62,22.62-18.26,28.61a5.67,5.67,0,0,1-4.09-2.45s9-4.24,12.33-21.42a19,19,0,0,0,.42-4.31c-.35-6.35-2.64-25.46-17.65-23.87C449.08,236.16,427.62,235.84,417.64,229.32Z" fill="#2f2e41" data-secondary="true"/>
</svg>